%TF.GenerationSoftware,KiCad,Pcbnew,7.0.10-7.0.10~ubuntu22.04.1*%
%TF.CreationDate,2024-02-21T20:07:40+01:00*%
%TF.ProjectId,Jove,4a6f7665-2e6b-4696-9361-645f70636258,rev?*%
%TF.SameCoordinates,Original*%
%TF.FileFunction,Copper,L1,Top*%
%TF.FilePolarity,Positive*%
%FSLAX46Y46*%
G04 Gerber Fmt 4.6, Leading zero omitted, Abs format (unit mm)*
G04 Created by KiCad (PCBNEW 7.0.10-7.0.10~ubuntu22.04.1) date 2024-02-21 20:07:40*
%MOMM*%
%LPD*%
G01*
G04 APERTURE LIST*
G04 APERTURE END LIST*
%TA.AperFunction,NonConductor*%
G36*
X2416691Y4556593D02*
G01*
X2452655Y4507093D01*
X2457500Y4476500D01*
X2457500Y-123674500D01*
X2438593Y-123732691D01*
X2389093Y-123768655D01*
X2358500Y-123773500D01*
X-27772500Y-123773500D01*
X-27830691Y-123754593D01*
X-27866655Y-123705093D01*
X-27871500Y-123674500D01*
X-27871500Y-120916765D01*
X-23101212Y-120916765D01*
X-23071586Y-121186018D01*
X-23003072Y-121448088D01*
X-22897130Y-121697390D01*
X-22756018Y-121928610D01*
X-22582745Y-122136820D01*
X-22381002Y-122317582D01*
X-22155090Y-122467044D01*
X-21909824Y-122582020D01*
X-21650431Y-122660060D01*
X-21483160Y-122684677D01*
X-21382440Y-122699500D01*
X-21382439Y-122699500D01*
X-19579369Y-122699500D01*
X-19376844Y-122684677D01*
X-19112447Y-122625780D01*
X-18859442Y-122529014D01*
X-18623223Y-122396441D01*
X-18521096Y-122317582D01*
X-18408826Y-122230891D01*
X-18318129Y-122136818D01*
X-18220814Y-122035881D01*
X-18133029Y-121913181D01*
X-18063199Y-121815577D01*
X-17939342Y-121574671D01*
X-17851884Y-121318312D01*
X-17851881Y-121318301D01*
X-17802680Y-121051930D01*
X-17792788Y-120781232D01*
X-17822414Y-120511979D01*
X-17890927Y-120249914D01*
X-17996867Y-120000616D01*
X-17996870Y-120000610D01*
X-18137983Y-119769387D01*
X-18311253Y-119561181D01*
X-18512992Y-119380422D01*
X-18738913Y-119230953D01*
X-18984177Y-119115979D01*
X-19243555Y-119037943D01*
X-19243571Y-119037939D01*
X-19511560Y-118998500D01*
X-19511561Y-118998500D01*
X-21314631Y-118998500D01*
X-21517151Y-119013322D01*
X-21517155Y-119013322D01*
X-21517156Y-119013323D01*
X-21781553Y-119072220D01*
X-22034558Y-119168986D01*
X-22270777Y-119301559D01*
X-22270778Y-119301560D01*
X-22270780Y-119301561D01*
X-22485173Y-119467108D01*
X-22485176Y-119467111D01*
X-22485177Y-119467112D01*
X-22673186Y-119662119D01*
X-22830799Y-119882421D01*
X-22954656Y-120123325D01*
X-23042118Y-120379695D01*
X-23091319Y-120646067D01*
X-23101212Y-120916765D01*
X-27871500Y-120916765D01*
X-27871500Y-106587539D01*
X-23674321Y-106587539D01*
X-23664134Y-106957103D01*
X-23613354Y-107323303D01*
X-23522597Y-107681695D01*
X-23392964Y-108027927D01*
X-23226031Y-108357797D01*
X-23023821Y-108667302D01*
X-22788791Y-108952683D01*
X-22523794Y-109210476D01*
X-22232045Y-109437554D01*
X-21917087Y-109631158D01*
X-21582742Y-109788939D01*
X-21233069Y-109908982D01*
X-20872313Y-109989829D01*
X-20504852Y-110030500D01*
X-20504851Y-110030500D01*
X-20227662Y-110030500D01*
X-20227651Y-110030500D01*
X-19950857Y-110015229D01*
X-19586195Y-109954377D01*
X-19230440Y-109853780D01*
X-18887911Y-109714656D01*
X-18562766Y-109538697D01*
X-18258951Y-109328036D01*
X-18258948Y-109328034D01*
X-18123964Y-109210476D01*
X-17980154Y-109085232D01*
X-17729760Y-108813231D01*
X-17510808Y-108515337D01*
X-17325956Y-108195163D01*
X-17177448Y-107856598D01*
X-17067085Y-107503750D01*
X-16996209Y-107140903D01*
X-16996208Y-107140898D01*
X-16965678Y-106772452D01*
X-16965678Y-106772450D01*
X-16970775Y-106587539D01*
X-8434321Y-106587539D01*
X-8424134Y-106957103D01*
X-8373354Y-107323303D01*
X-8282597Y-107681695D01*
X-8152964Y-108027927D01*
X-7986031Y-108357797D01*
X-7783821Y-108667302D01*
X-7548791Y-108952683D01*
X-7283794Y-109210476D01*
X-6992045Y-109437554D01*
X-6677087Y-109631158D01*
X-6342742Y-109788939D01*
X-5993069Y-109908982D01*
X-5632313Y-109989829D01*
X-5264852Y-110030500D01*
X-5264851Y-110030500D01*
X-4987662Y-110030500D01*
X-4987651Y-110030500D01*
X-4710857Y-110015229D01*
X-4346195Y-109954377D01*
X-3990440Y-109853780D01*
X-3647911Y-109714656D01*
X-3322766Y-109538697D01*
X-3018951Y-109328036D01*
X-3018948Y-109328034D01*
X-2883964Y-109210476D01*
X-2740154Y-109085232D01*
X-2489760Y-108813231D01*
X-2270808Y-108515337D01*
X-2085956Y-108195163D01*
X-1937448Y-107856598D01*
X-1827085Y-107503750D01*
X-1756209Y-107140903D01*
X-1756208Y-107140898D01*
X-1725678Y-106772452D01*
X-1725678Y-106772450D01*
X-1735865Y-106402900D01*
X-1735866Y-106402894D01*
X-1786646Y-106036693D01*
X-1877402Y-105678308D01*
X-2007035Y-105332074D01*
X-2173967Y-105002205D01*
X-2173969Y-105002201D01*
X-2376176Y-104692700D01*
X-2611210Y-104407316D01*
X-2611212Y-104407314D01*
X-2876212Y-104149518D01*
X-3167950Y-103922449D01*
X-3482919Y-103728838D01*
X-3482918Y-103728838D01*
X-3817249Y-103571064D01*
X-3817262Y-103571059D01*
X-4166927Y-103451019D01*
X-4527686Y-103370170D01*
X-4861849Y-103333185D01*
X-4895148Y-103329500D01*
X-5172349Y-103329500D01*
X-5172354Y-103329500D01*
X-5449147Y-103344771D01*
X-5813798Y-103405621D01*
X-5813805Y-103405623D01*
X-6169560Y-103506220D01*
X-6169562Y-103506221D01*
X-6512090Y-103645344D01*
X-6512093Y-103645346D01*
X-6837233Y-103821302D01*
X-7141051Y-104031965D01*
X-7269288Y-104143647D01*
X-7419846Y-104274768D01*
X-7670240Y-104546769D01*
X-7889192Y-104844663D01*
X-8074044Y-105164837D01*
X-8222552Y-105503402D01*
X-8332915Y-105856250D01*
X-8403791Y-106219097D01*
X-8434321Y-106587539D01*
X-16970775Y-106587539D01*
X-16975865Y-106402900D01*
X-16975866Y-106402894D01*
X-17026646Y-106036693D01*
X-17117402Y-105678308D01*
X-17247035Y-105332074D01*
X-17413967Y-105002205D01*
X-17413969Y-105002201D01*
X-17616176Y-104692700D01*
X-17851210Y-104407316D01*
X-17851212Y-104407314D01*
X-18116212Y-104149518D01*
X-18407950Y-103922449D01*
X-18722919Y-103728838D01*
X-18722918Y-103728838D01*
X-19057249Y-103571064D01*
X-19057262Y-103571059D01*
X-19406927Y-103451019D01*
X-19767686Y-103370170D01*
X-20101849Y-103333185D01*
X-20135148Y-103329500D01*
X-20412349Y-103329500D01*
X-20412354Y-103329500D01*
X-20689147Y-103344771D01*
X-21053798Y-103405621D01*
X-21053805Y-103405623D01*
X-21409560Y-103506220D01*
X-21409562Y-103506221D01*
X-21752090Y-103645344D01*
X-21752093Y-103645346D01*
X-22077233Y-103821302D01*
X-22381051Y-104031965D01*
X-22509288Y-104143647D01*
X-22659846Y-104274768D01*
X-22910240Y-104546769D01*
X-23129192Y-104844663D01*
X-23314044Y-105164837D01*
X-23462552Y-105503402D01*
X-23572915Y-105856250D01*
X-23643791Y-106219097D01*
X-23674321Y-106587539D01*
X-27871500Y-106587539D01*
X-27871500Y-98967539D01*
X-16054321Y-98967539D01*
X-16044134Y-99337103D01*
X-15993354Y-99703303D01*
X-15902597Y-100061695D01*
X-15772964Y-100407927D01*
X-15606031Y-100737797D01*
X-15403821Y-101047302D01*
X-15168791Y-101332683D01*
X-14903794Y-101590476D01*
X-14612045Y-101817554D01*
X-14297087Y-102011158D01*
X-13962742Y-102168939D01*
X-13613069Y-102288982D01*
X-13252313Y-102369829D01*
X-12884852Y-102410500D01*
X-12884851Y-102410500D01*
X-12607662Y-102410500D01*
X-12607651Y-102410500D01*
X-12330857Y-102395229D01*
X-11966195Y-102334377D01*
X-11610440Y-102233780D01*
X-11267911Y-102094656D01*
X-10942766Y-101918697D01*
X-10638951Y-101708036D01*
X-10638948Y-101708034D01*
X-10503964Y-101590476D01*
X-10360154Y-101465232D01*
X-10109760Y-101193231D01*
X-9890808Y-100895337D01*
X-9705956Y-100575163D01*
X-9557448Y-100236598D01*
X-9447085Y-99883750D01*
X-9376209Y-99520903D01*
X-9376208Y-99520898D01*
X-9345678Y-99152452D01*
X-9345678Y-99152450D01*
X-9355865Y-98782900D01*
X-9355866Y-98782894D01*
X-9406646Y-98416693D01*
X-9497402Y-98058308D01*
X-9627035Y-97712074D01*
X-9793967Y-97382205D01*
X-9793969Y-97382201D01*
X-9996176Y-97072700D01*
X-10231210Y-96787316D01*
X-10231212Y-96787314D01*
X-10496212Y-96529518D01*
X-10787950Y-96302449D01*
X-11102919Y-96108838D01*
X-11102918Y-96108838D01*
X-11437249Y-95951064D01*
X-11437262Y-95951059D01*
X-11786927Y-95831019D01*
X-12147686Y-95750170D01*
X-12481849Y-95713185D01*
X-12515148Y-95709500D01*
X-12792349Y-95709500D01*
X-12792354Y-95709500D01*
X-13069147Y-95724771D01*
X-13433798Y-95785621D01*
X-13433805Y-95785623D01*
X-13789560Y-95886220D01*
X-13789562Y-95886221D01*
X-14132090Y-96025344D01*
X-14132093Y-96025346D01*
X-14457233Y-96201302D01*
X-14761051Y-96411965D01*
X-14889288Y-96523647D01*
X-15039846Y-96654768D01*
X-15290240Y-96926769D01*
X-15509192Y-97224663D01*
X-15694044Y-97544837D01*
X-15842552Y-97883402D01*
X-15952915Y-98236250D01*
X-16023791Y-98599097D01*
X-16054321Y-98967539D01*
X-27871500Y-98967539D01*
X-27871500Y-91347539D01*
X-23674321Y-91347539D01*
X-23664134Y-91717103D01*
X-23613354Y-92083303D01*
X-23522597Y-92441695D01*
X-23392964Y-92787927D01*
X-23226031Y-93117797D01*
X-23023821Y-93427302D01*
X-22788791Y-93712683D01*
X-22523794Y-93970476D01*
X-22232045Y-94197554D01*
X-21917087Y-94391158D01*
X-21582742Y-94548939D01*
X-21233069Y-94668982D01*
X-20872313Y-94749829D01*
X-20504852Y-94790500D01*
X-20504851Y-94790500D01*
X-20227662Y-94790500D01*
X-20227651Y-94790500D01*
X-19950857Y-94775229D01*
X-19586195Y-94714377D01*
X-19230440Y-94613780D01*
X-18887911Y-94474656D01*
X-18562766Y-94298697D01*
X-18258951Y-94088036D01*
X-18258948Y-94088034D01*
X-18123964Y-93970476D01*
X-17980154Y-93845232D01*
X-17729760Y-93573231D01*
X-17510808Y-93275337D01*
X-17325956Y-92955163D01*
X-17177448Y-92616598D01*
X-17067085Y-92263750D01*
X-16996209Y-91900903D01*
X-16996208Y-91900898D01*
X-16965678Y-91532452D01*
X-16965678Y-91532450D01*
X-16970775Y-91347539D01*
X-8434321Y-91347539D01*
X-8424134Y-91717103D01*
X-8373354Y-92083303D01*
X-8282597Y-92441695D01*
X-8152964Y-92787927D01*
X-7986031Y-93117797D01*
X-7783821Y-93427302D01*
X-7548791Y-93712683D01*
X-7283794Y-93970476D01*
X-6992045Y-94197554D01*
X-6677087Y-94391158D01*
X-6342742Y-94548939D01*
X-5993069Y-94668982D01*
X-5632313Y-94749829D01*
X-5264852Y-94790500D01*
X-5264851Y-94790500D01*
X-4987662Y-94790500D01*
X-4987651Y-94790500D01*
X-4710857Y-94775229D01*
X-4346195Y-94714377D01*
X-3990440Y-94613780D01*
X-3647911Y-94474656D01*
X-3322766Y-94298697D01*
X-3018951Y-94088036D01*
X-3018948Y-94088034D01*
X-2883964Y-93970476D01*
X-2740154Y-93845232D01*
X-2489760Y-93573231D01*
X-2270808Y-93275337D01*
X-2085956Y-92955163D01*
X-1937448Y-92616598D01*
X-1827085Y-92263750D01*
X-1756209Y-91900903D01*
X-1756208Y-91900898D01*
X-1725678Y-91532452D01*
X-1725678Y-91532450D01*
X-1735865Y-91162900D01*
X-1735866Y-91162894D01*
X-1786646Y-90796693D01*
X-1877402Y-90438308D01*
X-2007035Y-90092074D01*
X-2173967Y-89762205D01*
X-2173969Y-89762201D01*
X-2376176Y-89452700D01*
X-2611210Y-89167316D01*
X-2611212Y-89167314D01*
X-2876212Y-88909518D01*
X-3167950Y-88682449D01*
X-3482919Y-88488838D01*
X-3482918Y-88488838D01*
X-3817249Y-88331064D01*
X-3817262Y-88331059D01*
X-4166927Y-88211019D01*
X-4527686Y-88130170D01*
X-4861849Y-88093185D01*
X-4895148Y-88089500D01*
X-5172349Y-88089500D01*
X-5172354Y-88089500D01*
X-5449147Y-88104771D01*
X-5813798Y-88165621D01*
X-5813805Y-88165623D01*
X-6169560Y-88266220D01*
X-6169562Y-88266221D01*
X-6512090Y-88405344D01*
X-6512093Y-88405346D01*
X-6837233Y-88581302D01*
X-7141051Y-88791965D01*
X-7269288Y-88903647D01*
X-7419846Y-89034768D01*
X-7670240Y-89306769D01*
X-7889192Y-89604663D01*
X-8074044Y-89924837D01*
X-8222552Y-90263402D01*
X-8332915Y-90616250D01*
X-8403791Y-90979097D01*
X-8434321Y-91347539D01*
X-16970775Y-91347539D01*
X-16975865Y-91162900D01*
X-16975866Y-91162894D01*
X-17026646Y-90796693D01*
X-17117402Y-90438308D01*
X-17247035Y-90092074D01*
X-17413967Y-89762205D01*
X-17413969Y-89762201D01*
X-17616176Y-89452700D01*
X-17851210Y-89167316D01*
X-17851212Y-89167314D01*
X-18116212Y-88909518D01*
X-18407950Y-88682449D01*
X-18722919Y-88488838D01*
X-18722918Y-88488838D01*
X-19057249Y-88331064D01*
X-19057262Y-88331059D01*
X-19406927Y-88211019D01*
X-19767686Y-88130170D01*
X-20101849Y-88093185D01*
X-20135148Y-88089500D01*
X-20412349Y-88089500D01*
X-20412354Y-88089500D01*
X-20689147Y-88104771D01*
X-21053798Y-88165621D01*
X-21053805Y-88165623D01*
X-21409560Y-88266220D01*
X-21409562Y-88266221D01*
X-21752090Y-88405344D01*
X-21752093Y-88405346D01*
X-22077233Y-88581302D01*
X-22381051Y-88791965D01*
X-22509288Y-88903647D01*
X-22659846Y-89034768D01*
X-22910240Y-89306769D01*
X-23129192Y-89604663D01*
X-23314044Y-89924837D01*
X-23462552Y-90263402D01*
X-23572915Y-90616250D01*
X-23643791Y-90979097D01*
X-23674321Y-91347539D01*
X-27871500Y-91347539D01*
X-27871500Y-76107539D01*
X-23674321Y-76107539D01*
X-23664134Y-76477103D01*
X-23613354Y-76843303D01*
X-23522597Y-77201695D01*
X-23392964Y-77547927D01*
X-23226031Y-77877797D01*
X-23023821Y-78187302D01*
X-22788791Y-78472683D01*
X-22523794Y-78730476D01*
X-22232045Y-78957554D01*
X-21917087Y-79151158D01*
X-21582742Y-79308939D01*
X-21233069Y-79428982D01*
X-20872313Y-79509829D01*
X-20504852Y-79550500D01*
X-20504851Y-79550500D01*
X-20227662Y-79550500D01*
X-20227651Y-79550500D01*
X-19950857Y-79535229D01*
X-19586195Y-79474377D01*
X-19230440Y-79373780D01*
X-18887911Y-79234656D01*
X-18562766Y-79058697D01*
X-18258951Y-78848036D01*
X-18258948Y-78848034D01*
X-18123964Y-78730476D01*
X-17980154Y-78605232D01*
X-17729760Y-78333231D01*
X-17510808Y-78035337D01*
X-17325956Y-77715163D01*
X-17177448Y-77376598D01*
X-17067085Y-77023750D01*
X-16996209Y-76660903D01*
X-16996208Y-76660898D01*
X-16965678Y-76292452D01*
X-16965678Y-76292450D01*
X-16970775Y-76107539D01*
X-8434321Y-76107539D01*
X-8424134Y-76477103D01*
X-8373354Y-76843303D01*
X-8282597Y-77201695D01*
X-8152964Y-77547927D01*
X-7986031Y-77877797D01*
X-7783821Y-78187302D01*
X-7548791Y-78472683D01*
X-7283794Y-78730476D01*
X-6992045Y-78957554D01*
X-6677087Y-79151158D01*
X-6342742Y-79308939D01*
X-5993069Y-79428982D01*
X-5632313Y-79509829D01*
X-5264852Y-79550500D01*
X-5264851Y-79550500D01*
X-4987662Y-79550500D01*
X-4987651Y-79550500D01*
X-4710857Y-79535229D01*
X-4346195Y-79474377D01*
X-3990440Y-79373780D01*
X-3647911Y-79234656D01*
X-3322766Y-79058697D01*
X-3018951Y-78848036D01*
X-3018948Y-78848034D01*
X-2883964Y-78730476D01*
X-2740154Y-78605232D01*
X-2489760Y-78333231D01*
X-2270808Y-78035337D01*
X-2085956Y-77715163D01*
X-1937448Y-77376598D01*
X-1827085Y-77023750D01*
X-1756209Y-76660903D01*
X-1756208Y-76660898D01*
X-1725678Y-76292452D01*
X-1725678Y-76292450D01*
X-1735865Y-75922900D01*
X-1735866Y-75922894D01*
X-1786646Y-75556693D01*
X-1877402Y-75198308D01*
X-2007035Y-74852074D01*
X-2173967Y-74522205D01*
X-2173969Y-74522201D01*
X-2376176Y-74212700D01*
X-2611210Y-73927316D01*
X-2611212Y-73927314D01*
X-2876212Y-73669518D01*
X-3167950Y-73442449D01*
X-3482919Y-73248838D01*
X-3482918Y-73248838D01*
X-3817249Y-73091064D01*
X-3817262Y-73091059D01*
X-4166927Y-72971019D01*
X-4527686Y-72890170D01*
X-4861849Y-72853185D01*
X-4895148Y-72849500D01*
X-5172349Y-72849500D01*
X-5172354Y-72849500D01*
X-5449147Y-72864771D01*
X-5813798Y-72925621D01*
X-5813805Y-72925623D01*
X-6169560Y-73026220D01*
X-6169562Y-73026221D01*
X-6512090Y-73165344D01*
X-6512093Y-73165346D01*
X-6837233Y-73341302D01*
X-7141051Y-73551965D01*
X-7269288Y-73663647D01*
X-7419846Y-73794768D01*
X-7670240Y-74066769D01*
X-7889192Y-74364663D01*
X-8074044Y-74684837D01*
X-8222552Y-75023402D01*
X-8332915Y-75376250D01*
X-8403791Y-75739097D01*
X-8434321Y-76107539D01*
X-16970775Y-76107539D01*
X-16975865Y-75922900D01*
X-16975866Y-75922894D01*
X-17026646Y-75556693D01*
X-17117402Y-75198308D01*
X-17247035Y-74852074D01*
X-17413967Y-74522205D01*
X-17413969Y-74522201D01*
X-17616176Y-74212700D01*
X-17851210Y-73927316D01*
X-17851212Y-73927314D01*
X-18116212Y-73669518D01*
X-18407950Y-73442449D01*
X-18722919Y-73248838D01*
X-18722918Y-73248838D01*
X-19057249Y-73091064D01*
X-19057262Y-73091059D01*
X-19406927Y-72971019D01*
X-19767686Y-72890170D01*
X-20101849Y-72853185D01*
X-20135148Y-72849500D01*
X-20412349Y-72849500D01*
X-20412354Y-72849500D01*
X-20689147Y-72864771D01*
X-21053798Y-72925621D01*
X-21053805Y-72925623D01*
X-21409560Y-73026220D01*
X-21409562Y-73026221D01*
X-21752090Y-73165344D01*
X-21752093Y-73165346D01*
X-22077233Y-73341302D01*
X-22381051Y-73551965D01*
X-22509288Y-73663647D01*
X-22659846Y-73794768D01*
X-22910240Y-74066769D01*
X-23129192Y-74364663D01*
X-23314044Y-74684837D01*
X-23462552Y-75023402D01*
X-23572915Y-75376250D01*
X-23643791Y-75739097D01*
X-23674321Y-76107539D01*
X-27871500Y-76107539D01*
X-27871500Y-61157811D01*
X-24220500Y-61157811D01*
X-24180476Y-61551403D01*
X-24100838Y-61938927D01*
X-23982403Y-62316405D01*
X-23826387Y-62679965D01*
X-23634391Y-63025876D01*
X-23408385Y-63350588D01*
X-23150688Y-63650769D01*
X-22863944Y-63923340D01*
X-22551095Y-64165502D01*
X-22215353Y-64374772D01*
X-21860162Y-64549002D01*
X-21489167Y-64686403D01*
X-21106174Y-64785567D01*
X-20775533Y-64836219D01*
X-20715115Y-64845475D01*
X-20702623Y-64846108D01*
X-20418848Y-64860500D01*
X-20418831Y-64860500D01*
X-20221169Y-64860500D01*
X-20221152Y-64860500D01*
X-19949866Y-64846741D01*
X-19924884Y-64845475D01*
X-19804047Y-64826963D01*
X-19533826Y-64785567D01*
X-19150833Y-64686403D01*
X-19150824Y-64686400D01*
X-19150821Y-64686399D01*
X-18779853Y-64549008D01*
X-18779841Y-64549003D01*
X-18779838Y-64549002D01*
X-18424647Y-64374772D01*
X-18088905Y-64165502D01*
X-17776056Y-63923340D01*
X-17489312Y-63650769D01*
X-17231615Y-63350588D01*
X-17005609Y-63025876D01*
X-17005606Y-63025871D01*
X-17005604Y-63025868D01*
X-16813615Y-62679970D01*
X-16657598Y-62316407D01*
X-16657594Y-62316397D01*
X-16539161Y-61938924D01*
X-16459526Y-61551413D01*
X-16459523Y-61551399D01*
X-16419500Y-61157812D01*
X-16419500Y-61157811D01*
X-8980500Y-61157811D01*
X-8940476Y-61551403D01*
X-8860838Y-61938927D01*
X-8742403Y-62316405D01*
X-8586387Y-62679965D01*
X-8394391Y-63025876D01*
X-8168385Y-63350588D01*
X-7910688Y-63650769D01*
X-7623944Y-63923340D01*
X-7311095Y-64165502D01*
X-6975353Y-64374772D01*
X-6620162Y-64549002D01*
X-6249167Y-64686403D01*
X-5866174Y-64785567D01*
X-5535533Y-64836219D01*
X-5475115Y-64845475D01*
X-5462623Y-64846108D01*
X-5178848Y-64860500D01*
X-5178831Y-64860500D01*
X-4981169Y-64860500D01*
X-4981152Y-64860500D01*
X-4709866Y-64846741D01*
X-4684884Y-64845475D01*
X-4564047Y-64826963D01*
X-4293826Y-64785567D01*
X-3910833Y-64686403D01*
X-3910824Y-64686400D01*
X-3910821Y-64686399D01*
X-3539853Y-64549008D01*
X-3539841Y-64549003D01*
X-3539838Y-64549002D01*
X-3184647Y-64374772D01*
X-2848905Y-64165502D01*
X-2536056Y-63923340D01*
X-2249312Y-63650769D01*
X-1991615Y-63350588D01*
X-1765609Y-63025876D01*
X-1765606Y-63025871D01*
X-1765604Y-63025868D01*
X-1573615Y-62679970D01*
X-1417598Y-62316407D01*
X-1417594Y-62316397D01*
X-1299161Y-61938924D01*
X-1219526Y-61551413D01*
X-1219523Y-61551399D01*
X-1179500Y-61157812D01*
X-1179500Y-60762187D01*
X-1219523Y-60368600D01*
X-1219526Y-60368586D01*
X-1299161Y-59981075D01*
X-1417594Y-59603602D01*
X-1417598Y-59603592D01*
X-1573615Y-59240029D01*
X-1765604Y-58894131D01*
X-1991617Y-58569409D01*
X-2249314Y-58269228D01*
X-2536049Y-57996666D01*
X-2536052Y-57996664D01*
X-2536050Y-57996664D01*
X-2536056Y-57996660D01*
X-2718691Y-57855290D01*
X-2848899Y-57754502D01*
X-3184649Y-57545227D01*
X-3539841Y-57370996D01*
X-3539853Y-57370991D01*
X-3910821Y-57233600D01*
X-4293830Y-57134432D01*
X-4293837Y-57134431D01*
X-4684884Y-57074524D01*
X-4956171Y-57060766D01*
X-4981152Y-57059500D01*
X-5178848Y-57059500D01*
X-5216318Y-57061400D01*
X-5475115Y-57074524D01*
X-5866162Y-57134431D01*
X-5866169Y-57134432D01*
X-5866171Y-57134432D01*
X-5866174Y-57134433D01*
X-6249167Y-57233597D01*
X-6249168Y-57233597D01*
X-6249178Y-57233600D01*
X-6620146Y-57370991D01*
X-6620158Y-57370996D01*
X-6620162Y-57370998D01*
X-6975353Y-57545228D01*
X-7311095Y-57754498D01*
X-7623944Y-57996660D01*
X-7910688Y-58269231D01*
X-8168385Y-58569412D01*
X-8394391Y-58894124D01*
X-8586387Y-59240035D01*
X-8742403Y-59603595D01*
X-8860838Y-59981073D01*
X-8940476Y-60368597D01*
X-8980500Y-60762189D01*
X-8980500Y-61157811D01*
X-16419500Y-61157811D01*
X-16419500Y-60762187D01*
X-16459523Y-60368600D01*
X-16459526Y-60368586D01*
X-16539161Y-59981075D01*
X-16657594Y-59603602D01*
X-16657598Y-59603592D01*
X-16813615Y-59240029D01*
X-17005604Y-58894131D01*
X-17231617Y-58569409D01*
X-17489314Y-58269228D01*
X-17776049Y-57996666D01*
X-17776052Y-57996664D01*
X-17776050Y-57996664D01*
X-17776056Y-57996660D01*
X-17958691Y-57855290D01*
X-18088899Y-57754502D01*
X-18424649Y-57545227D01*
X-18779841Y-57370996D01*
X-18779853Y-57370991D01*
X-19150821Y-57233600D01*
X-19533830Y-57134432D01*
X-19533837Y-57134431D01*
X-19924884Y-57074524D01*
X-20196171Y-57060766D01*
X-20221152Y-57059500D01*
X-20418848Y-57059500D01*
X-20456318Y-57061400D01*
X-20715115Y-57074524D01*
X-21106162Y-57134431D01*
X-21106169Y-57134432D01*
X-21106171Y-57134432D01*
X-21106174Y-57134433D01*
X-21489167Y-57233597D01*
X-21489168Y-57233597D01*
X-21489178Y-57233600D01*
X-21860146Y-57370991D01*
X-21860158Y-57370996D01*
X-21860162Y-57370998D01*
X-22215353Y-57545228D01*
X-22551095Y-57754498D01*
X-22863944Y-57996660D01*
X-23150688Y-58269231D01*
X-23408385Y-58569412D01*
X-23634391Y-58894124D01*
X-23826387Y-59240035D01*
X-23982403Y-59603595D01*
X-24100838Y-59981073D01*
X-24180476Y-60368597D01*
X-24220500Y-60762189D01*
X-24220500Y-61157811D01*
X-27871500Y-61157811D01*
X-27871500Y-45917811D01*
X-24220500Y-45917811D01*
X-24180476Y-46311403D01*
X-24100838Y-46698927D01*
X-23982403Y-47076405D01*
X-23826387Y-47439965D01*
X-23634391Y-47785876D01*
X-23408385Y-48110588D01*
X-23150688Y-48410769D01*
X-22863944Y-48683340D01*
X-22551095Y-48925502D01*
X-22215353Y-49134772D01*
X-21860162Y-49309002D01*
X-21489167Y-49446403D01*
X-21106174Y-49545567D01*
X-20775533Y-49596219D01*
X-20715115Y-49605475D01*
X-20702623Y-49606108D01*
X-20418848Y-49620500D01*
X-20418831Y-49620500D01*
X-20221169Y-49620500D01*
X-20221152Y-49620500D01*
X-19949866Y-49606741D01*
X-19924884Y-49605475D01*
X-19804047Y-49586963D01*
X-19533826Y-49545567D01*
X-19150833Y-49446403D01*
X-19150824Y-49446400D01*
X-19150821Y-49446399D01*
X-18779853Y-49309008D01*
X-18779841Y-49309003D01*
X-18779838Y-49309002D01*
X-18424647Y-49134772D01*
X-18088905Y-48925502D01*
X-17776056Y-48683340D01*
X-17489312Y-48410769D01*
X-17231615Y-48110588D01*
X-17005609Y-47785876D01*
X-17005606Y-47785871D01*
X-17005604Y-47785868D01*
X-16813615Y-47439970D01*
X-16657598Y-47076407D01*
X-16657594Y-47076397D01*
X-16539161Y-46698924D01*
X-16459526Y-46311413D01*
X-16459523Y-46311399D01*
X-16419500Y-45917812D01*
X-16419500Y-45917811D01*
X-8980500Y-45917811D01*
X-8940476Y-46311403D01*
X-8860838Y-46698927D01*
X-8742403Y-47076405D01*
X-8586387Y-47439965D01*
X-8394391Y-47785876D01*
X-8168385Y-48110588D01*
X-7910688Y-48410769D01*
X-7623944Y-48683340D01*
X-7311095Y-48925502D01*
X-6975353Y-49134772D01*
X-6620162Y-49309002D01*
X-6249167Y-49446403D01*
X-5866174Y-49545567D01*
X-5535533Y-49596219D01*
X-5475115Y-49605475D01*
X-5462623Y-49606108D01*
X-5178848Y-49620500D01*
X-5178831Y-49620500D01*
X-4981169Y-49620500D01*
X-4981152Y-49620500D01*
X-4709866Y-49606741D01*
X-4684884Y-49605475D01*
X-4564047Y-49586963D01*
X-4293826Y-49545567D01*
X-3910833Y-49446403D01*
X-3910824Y-49446400D01*
X-3910821Y-49446399D01*
X-3539853Y-49309008D01*
X-3539841Y-49309003D01*
X-3539838Y-49309002D01*
X-3184647Y-49134772D01*
X-2848905Y-48925502D01*
X-2536056Y-48683340D01*
X-2249312Y-48410769D01*
X-1991615Y-48110588D01*
X-1765609Y-47785876D01*
X-1765606Y-47785871D01*
X-1765604Y-47785868D01*
X-1573615Y-47439970D01*
X-1417598Y-47076407D01*
X-1417594Y-47076397D01*
X-1299161Y-46698924D01*
X-1219526Y-46311413D01*
X-1219523Y-46311399D01*
X-1179500Y-45917812D01*
X-1179500Y-45522187D01*
X-1219523Y-45128600D01*
X-1219526Y-45128586D01*
X-1299161Y-44741075D01*
X-1417594Y-44363602D01*
X-1417598Y-44363592D01*
X-1573615Y-44000029D01*
X-1765604Y-43654131D01*
X-1991617Y-43329409D01*
X-2249314Y-43029228D01*
X-2536049Y-42756666D01*
X-2536052Y-42756664D01*
X-2536050Y-42756664D01*
X-2536056Y-42756660D01*
X-2718691Y-42615290D01*
X-2848899Y-42514502D01*
X-3184649Y-42305227D01*
X-3539841Y-42130996D01*
X-3539853Y-42130991D01*
X-3910821Y-41993600D01*
X-4293830Y-41894432D01*
X-4293837Y-41894431D01*
X-4684884Y-41834524D01*
X-4956171Y-41820766D01*
X-4981152Y-41819500D01*
X-5178848Y-41819500D01*
X-5216318Y-41821400D01*
X-5475115Y-41834524D01*
X-5866162Y-41894431D01*
X-5866169Y-41894432D01*
X-5866171Y-41894432D01*
X-5866174Y-41894433D01*
X-6249167Y-41993597D01*
X-6249168Y-41993597D01*
X-6249178Y-41993600D01*
X-6620146Y-42130991D01*
X-6620158Y-42130996D01*
X-6620162Y-42130998D01*
X-6975353Y-42305228D01*
X-7311095Y-42514498D01*
X-7623944Y-42756660D01*
X-7910688Y-43029231D01*
X-8168385Y-43329412D01*
X-8394391Y-43654124D01*
X-8586387Y-44000035D01*
X-8742403Y-44363595D01*
X-8860838Y-44741073D01*
X-8940476Y-45128597D01*
X-8980500Y-45522189D01*
X-8980500Y-45917811D01*
X-16419500Y-45917811D01*
X-16419500Y-45522187D01*
X-16459523Y-45128600D01*
X-16459526Y-45128586D01*
X-16539161Y-44741075D01*
X-16657594Y-44363602D01*
X-16657598Y-44363592D01*
X-16813615Y-44000029D01*
X-17005604Y-43654131D01*
X-17231617Y-43329409D01*
X-17489314Y-43029228D01*
X-17776049Y-42756666D01*
X-17776052Y-42756664D01*
X-17776050Y-42756664D01*
X-17776056Y-42756660D01*
X-17958691Y-42615290D01*
X-18088899Y-42514502D01*
X-18424649Y-42305227D01*
X-18779841Y-42130996D01*
X-18779853Y-42130991D01*
X-19150821Y-41993600D01*
X-19533830Y-41894432D01*
X-19533837Y-41894431D01*
X-19924884Y-41834524D01*
X-20196171Y-41820766D01*
X-20221152Y-41819500D01*
X-20418848Y-41819500D01*
X-20456318Y-41821400D01*
X-20715115Y-41834524D01*
X-21106162Y-41894431D01*
X-21106169Y-41894432D01*
X-21106171Y-41894432D01*
X-21106174Y-41894433D01*
X-21489167Y-41993597D01*
X-21489168Y-41993597D01*
X-21489178Y-41993600D01*
X-21860146Y-42130991D01*
X-21860158Y-42130996D01*
X-21860162Y-42130998D01*
X-22215353Y-42305228D01*
X-22551095Y-42514498D01*
X-22863944Y-42756660D01*
X-23150688Y-43029231D01*
X-23408385Y-43329412D01*
X-23634391Y-43654124D01*
X-23826387Y-44000035D01*
X-23982403Y-44363595D01*
X-24100838Y-44741073D01*
X-24180476Y-45128597D01*
X-24220500Y-45522189D01*
X-24220500Y-45917811D01*
X-27871500Y-45917811D01*
X-27871500Y-22733000D01*
X-24384000Y-22733000D01*
X-23622000Y-26924000D01*
X-21844000Y-30099000D01*
X-18288000Y-32893000D01*
X-14732000Y-34036000D01*
X-11430000Y-34163000D01*
X-9271000Y-33655000D01*
X-9270999Y-33654999D01*
X-9270996Y-33654999D01*
X-6350002Y-32258001D01*
X-6350001Y-32258000D01*
X-6350000Y-32258000D01*
X-4191000Y-30353000D01*
X-4190999Y-30352999D01*
X-4190998Y-30352998D01*
X-2032000Y-27305001D01*
X-2031999Y-27304999D01*
X-1143000Y-23749000D01*
X-1142999Y-23748996D01*
X-1269999Y-20066004D01*
X-1269999Y-20066001D01*
X-2032000Y-17780001D01*
X-2032000Y-17780000D01*
X-3683000Y-14859000D01*
X-3682999Y-14859000D01*
X-3683001Y-14858998D01*
X-7111998Y-12065001D01*
X-7111999Y-12065000D01*
X-7112000Y-12065000D01*
X-9906000Y-11049000D01*
X-9906000Y-11048999D01*
X-9906003Y-11048999D01*
X-12826997Y-10667999D01*
X-14985997Y-10921999D01*
X-14985998Y-10921999D01*
X-17399000Y-11684000D01*
X-20828000Y-13843000D01*
X-21674665Y-14858998D01*
X-22732999Y-16128998D01*
X-22733002Y-16129002D01*
X-23875999Y-18414998D01*
X-23876000Y-18415000D01*
X-24257000Y-20701000D01*
X-24384000Y-22733000D01*
X-27871500Y-22733000D01*
X-27871500Y-9001243D01*
X-6280500Y-9001243D01*
X-6239618Y-9219940D01*
X-6159247Y-9427401D01*
X-6042124Y-9616562D01*
X-5892236Y-9780981D01*
X-5714689Y-9915058D01*
X-5515528Y-10014229D01*
X-5301536Y-10075115D01*
X-5135503Y-10090500D01*
X-5135498Y-10090500D01*
X-5024502Y-10090500D01*
X-5024497Y-10090500D01*
X-4858464Y-10075115D01*
X-4644472Y-10014229D01*
X-4445311Y-9915058D01*
X-4267764Y-9780981D01*
X-4117876Y-9616562D01*
X-4000753Y-9427401D01*
X-3920382Y-9219940D01*
X-3879500Y-9001243D01*
X-3879500Y-8778757D01*
X-3920381Y-8560062D01*
X-4000753Y-8352600D01*
X-4000753Y-8352599D01*
X-4117876Y-8163438D01*
X-4267764Y-7999019D01*
X-4325326Y-7955550D01*
X-4445309Y-7864943D01*
X-4445318Y-7864938D01*
X-4644469Y-7765772D01*
X-4644471Y-7765771D01*
X-4644472Y-7765771D01*
X-4858464Y-7704885D01*
X-5024494Y-7689500D01*
X-5024497Y-7689500D01*
X-5135503Y-7689500D01*
X-5135505Y-7689500D01*
X-5246191Y-7699756D01*
X-5301536Y-7704885D01*
X-5515528Y-7765771D01*
X-5714689Y-7864942D01*
X-5892236Y-7999019D01*
X-6042124Y-8163438D01*
X-6159247Y-8352599D01*
X-6239618Y-8560060D01*
X-6280500Y-8778757D01*
X-6280500Y-9001243D01*
X-27871500Y-9001243D01*
X-27871500Y-6461243D01*
X-3740500Y-6461243D01*
X-3699618Y-6679940D01*
X-3619247Y-6887401D01*
X-3502124Y-7076562D01*
X-3352236Y-7240981D01*
X-3174689Y-7375058D01*
X-2975528Y-7474229D01*
X-2761536Y-7535115D01*
X-2595503Y-7550500D01*
X-2595498Y-7550500D01*
X-2484502Y-7550500D01*
X-2484497Y-7550500D01*
X-2318464Y-7535115D01*
X-2104472Y-7474229D01*
X-1905311Y-7375058D01*
X-1727764Y-7240981D01*
X-1577876Y-7076562D01*
X-1460753Y-6887401D01*
X-1380382Y-6679940D01*
X-1339500Y-6461243D01*
X-1339500Y-6238757D01*
X-1380381Y-6020062D01*
X-1460753Y-5812600D01*
X-1460753Y-5812599D01*
X-1577876Y-5623438D01*
X-1727764Y-5459019D01*
X-1785326Y-5415550D01*
X-1905309Y-5324943D01*
X-1905318Y-5324938D01*
X-2104469Y-5225772D01*
X-2104471Y-5225771D01*
X-2104472Y-5225771D01*
X-2318464Y-5164885D01*
X-2484494Y-5149500D01*
X-2484497Y-5149500D01*
X-2595503Y-5149500D01*
X-2595505Y-5149500D01*
X-2706191Y-5159756D01*
X-2761536Y-5164885D01*
X-2975528Y-5225771D01*
X-3174689Y-5324942D01*
X-3352236Y-5459019D01*
X-3502124Y-5623438D01*
X-3619247Y-5812599D01*
X-3699618Y-6020060D01*
X-3740500Y-6238757D01*
X-3740500Y-6461243D01*
X-27871500Y-6461243D01*
X-27871500Y1583235D01*
X-23101212Y1583235D01*
X-23071586Y1313982D01*
X-23003072Y1051912D01*
X-22897130Y802610D01*
X-22756018Y571390D01*
X-22756016Y571387D01*
X-22582746Y363181D01*
X-22381007Y182422D01*
X-22381004Y182420D01*
X-22381002Y182418D01*
X-22231489Y83501D01*
X-22155086Y32953D01*
X-22022900Y-29012D01*
X-21909824Y-82020D01*
X-21650431Y-160060D01*
X-21483160Y-184677D01*
X-21382440Y-199500D01*
X-21382439Y-199500D01*
X-19579369Y-199500D01*
X-19376844Y-184677D01*
X-19112447Y-125780D01*
X-18859442Y-29014D01*
X-18623223Y103559D01*
X-18623219Y103561D01*
X-18408826Y269108D01*
X-18220814Y464119D01*
X-18063199Y684422D01*
X-17939342Y925328D01*
X-17851884Y1181687D01*
X-17851881Y1181698D01*
X-17802680Y1448069D01*
X-17792788Y1718767D01*
X-17822414Y1988020D01*
X-17890927Y2250085D01*
X-17996867Y2499383D01*
X-17996870Y2499389D01*
X-17996870Y2499390D01*
X-18137982Y2730610D01*
X-18137983Y2730612D01*
X-18311253Y2938818D01*
X-18512992Y3119577D01*
X-18512993Y3119578D01*
X-18512998Y3119582D01*
X-18738910Y3269044D01*
X-18738913Y3269046D01*
X-18875958Y3333289D01*
X-18984176Y3384020D01*
X-19136339Y3429799D01*
X-19243555Y3462056D01*
X-19243559Y3462057D01*
X-19243569Y3462060D01*
X-19422230Y3488353D01*
X-19511560Y3501500D01*
X-19511561Y3501500D01*
X-21314631Y3501500D01*
X-21517156Y3486677D01*
X-21781553Y3427780D01*
X-22034558Y3331014D01*
X-22270777Y3198441D01*
X-22485177Y3032888D01*
X-22673186Y2837881D01*
X-22830799Y2617579D01*
X-22954656Y2376675D01*
X-23042118Y2120305D01*
X-23091319Y1853933D01*
X-23101212Y1583235D01*
X-27871500Y1583235D01*
X-27871500Y4476500D01*
X-27852593Y4534691D01*
X-27803093Y4570655D01*
X-27772500Y4575500D01*
X2358500Y4575500D01*
X2416691Y4556593D01*
G37*
%TD.AperFunction*%
M02*
